<?xml version="1.0" standalone="no"?><!DOCTYPE svg PUBLIC "-//W3C//DTD SVG 1.1//EN" "http://www.w3.org/Graphics/SVG/1.1/DTD/svg11.dtd"><svg t="1707236454100" class="icon" viewBox="0 0 1024 1024" version="1.1" xmlns="http://www.w3.org/2000/svg" p-id="2625" xmlns:xlink="http://www.w3.org/1999/xlink" width="200" height="200"><path d="M572 874.67H196a24.52 24.52 0 0 1-19.72-9.77 27.62 27.62 0 0 1-4.69-24.1A378.51 378.51 0 0 1 303.45 640a371.36 371.36 0 0 1 404.88-35.61 42.67 42.67 0 1 0 40.37-75.19 452.2 452.2 0 0 0-59.63-26.62 252.68 252.68 0 0 0 22-19c48-46.43 74.46-108.26 74.46-174.12s-26.44-127.69-74.46-174.12C663.46 89.36 600.24 64 533.07 64s-130.39 25.36-178 71.41c-48 46.43-74.46 108.27-74.46 174.12S307 437.22 355.05 483.65a253.54 253.54 0 0 0 22 18.93A456 456 0 0 0 250.67 573 464 464 0 0 0 89.13 819a112.34 112.34 0 0 0 19.62 98 109.47 109.47 0 0 0 87.31 43H572a42.67 42.67 0 1 0 0-85.33z m-38.93-725.34c92.16 0 167.15 71.87 167.15 160.2s-75 160.2-167.15 160.2-167.15-71.87-167.15-160.2 74.98-160.2 167.15-160.2z" fill="#231815" p-id="2626"></path><path d="M650.14 723.38a21.33 21.33 0 0 0 21.34 21.33H896a21.34 21.34 0 0 0 0-42.71H671.48a21.34 21.34 0 0 0-21.34 21.38zM896 810.59H671.48a21.33 21.33 0 1 0 0 42.66H896a21.33 21.33 0 1 0 0-42.66z" fill="#231815" p-id="2627"></path></svg>